# Blender v2.57 (sub 1) OBJ File: 'pptPrunePIT6.blend'
# www.blender.org
mtllib tunnel.mtl
o Cylinder
v 2.920419 -306.171753 -5.502836
v 3.949557 -306.171753 -5.401474
v 4.939145 -306.171753 -5.101286
v 5.851155 -306.171753 -4.613806
v 6.650538 -306.171753 -3.957770
v 7.306576 -306.171753 -3.158386
v 7.794055 -306.171753 -2.246377
v 8.094243 -306.171753 -1.256788
v 8.195604 -306.171753 -0.227651
v 8.094243 -306.171753 0.801486
v 7.794055 -306.171753 1.791074
v 7.306576 -306.171753 2.703084
v 6.650538 -306.171753 3.502468
v 5.851155 -306.171753 4.158504
v 4.939144 -306.171753 4.645984
v 3.949556 -306.171753 4.946172
v 2.920418 -306.171753 5.047533
v 1.891280 -306.171753 4.946171
v 0.901692 -306.171753 4.645983
v -0.010318 -306.171753 4.158503
v -0.809701 -306.171753 3.502465
v -1.465738 -306.171753 2.703082
v -1.953216 -306.171753 1.791071
v -2.253404 -306.171753 0.801482
v -2.354765 -306.171753 -0.227656
v -2.253402 -306.171753 -1.256794
v -1.953212 -306.171753 -2.246382
v -1.465732 -306.171753 -3.158392
v -0.809694 -306.171753 -3.957774
v -0.010310 -306.171753 -4.613811
v 0.901701 -306.171753 -5.101289
v 1.891290 -306.171753 -5.401476
v 2.920429 1.496416 -5.542990
v 3.957397 1.496416 -5.440856
v 4.954515 1.496416 -5.138381
v 5.873463 1.496416 -4.647191
v 6.678928 1.496416 -3.986161
v 7.339955 1.496416 -3.180694
v 7.831142 1.496417 -2.261743
v 8.133613 1.496417 -1.264624
v 8.235743 1.496417 -0.227655
v 8.133608 1.496417 0.809310
v 7.831135 1.496417 1.806426
v 7.339946 1.496417 2.725373
v 6.678918 1.496417 3.530836
v 5.873454 1.496417 4.191863
v 4.954506 1.496417 4.683050
v 3.957391 1.496417 4.985522
v 2.920425 1.496417 5.087656
v 1.883459 1.496417 4.985524
v 0.886342 1.496417 4.683054
v -0.032606 1.496417 4.191868
v -0.838071 1.496417 3.530843
v -1.499100 1.496417 2.725380
v -1.990290 1.496417 1.806435
v -2.292766 1.496417 0.809320
v -2.394902 1.496417 -0.227645
v -2.292775 1.496417 -1.264612
v -1.990307 1.496417 -2.261729
v -1.499124 1.496416 -3.180678
v -0.838102 1.496416 -3.986147
v -0.032642 1.496416 -4.647179
v 0.886302 1.496416 -5.138372
v 1.883416 1.496416 -5.440850
v 1.883416 316.199432 -5.440864
v 0.886302 316.199432 -5.138386
v -0.032642 316.199432 -4.647192
v -0.838102 316.199432 -3.986160
v -1.499124 316.199432 -3.180692
v -1.990307 316.199432 -2.261743
v -2.292775 316.199432 -1.264625
v -2.394902 316.199432 -0.227659
v -2.292766 316.199432 0.809306
v -1.990290 316.199432 1.806421
v -1.499100 316.199432 2.725367
v -0.838071 316.199432 3.530829
v -0.032606 316.199432 4.191854
v 0.886342 316.199432 4.683040
v 1.883459 316.199432 4.985510
v 2.920425 316.199432 5.087642
v 3.957391 316.199432 4.985508
v 4.954506 316.199432 4.683036
v 5.873454 316.199432 4.191849
v 6.678918 316.199432 3.530823
v 7.339946 316.199432 2.725359
v 7.831135 316.199432 1.806412
v 8.133608 316.199432 0.809297
v 8.235743 316.199432 -0.227669
v 8.133613 316.199432 -1.264638
v 7.831142 316.199432 -2.261756
v 7.339955 316.199432 -3.180707
v 6.678928 316.199432 -3.986174
v 5.873463 316.199432 -4.647205
v 4.954515 316.199432 -5.138395
v 3.957397 316.199432 -5.440870
v 2.920429 316.199432 -5.543004
v 1.891290 8.531272 -5.401490
v 0.901701 8.531272 -5.101303
v -0.010310 8.531272 -4.613824
v -0.809694 8.531272 -3.957788
v -1.465732 8.531272 -3.158406
v -1.953212 8.531272 -2.246396
v -2.253402 8.531272 -1.256808
v -2.354765 8.531272 -0.227670
v -2.253404 8.531272 0.801468
v -1.953216 8.531272 1.791057
v -1.465738 8.531272 2.703068
v -0.809701 8.531272 3.502451
v -0.010318 8.531272 4.158489
v 0.901692 8.531272 4.645969
v 1.891280 8.531272 4.946157
v 2.920418 8.531272 5.047519
v 3.949556 8.531272 4.946158
v 4.939144 8.531272 4.645970
v 5.851155 8.531272 4.158491
v 6.650538 8.531272 3.502454
v 7.306576 8.531272 2.703070
v 7.794055 8.531272 1.791060
v 8.094243 8.531272 0.801472
v 8.195604 8.531272 -0.227665
v 8.094243 8.531272 -1.256802
v 7.794055 8.531272 -2.246390
v 7.306576 8.531272 -3.158400
v 6.650538 8.531272 -3.957783
v 5.851155 8.531272 -4.613820
v 4.939145 8.531272 -5.101300
v 3.949557 8.531272 -5.401488
v 2.920419 8.531272 -5.502850
vt 0.506881 0.430011
vt 0.496287 0.432703
vt 0.446031 0.002360
vt 0.543774 0.000000
vt 0.479495 0.436503
vt 0.355019 0.022325
vt 0.464236 0.443266
vt 0.264913 0.060308
vt 0.451042 0.452683
vt 0.183397 0.114826
vt 0.440357 0.464233
vt 0.113667 0.184082
vt 0.432505 0.477326
vt 0.058531 0.265614
vt 0.427688 0.491329
vt 0.020263 0.356380
vt 0.425970 0.505585
vt 0.000470 0.452890
vt 0.427282 0.519444
vt 0.000000 0.551361
vt 0.431418 0.532275
vt 0.018889 0.647899
vt 0.438027 0.543497
vt 0.056351 0.738687
vt 0.445717 0.552150
vt 0.110646 0.819959
vt 0.452871 0.557565
vt 0.179786 0.888824
vt 0.461336 0.561008
vt 0.261546 0.942475
vt 0.474740 0.564105
vt 0.351713 0.978451
vt 0.490591 0.566836
vt 0.445119 0.996442
vt 0.506505 0.566292
vt 0.543282 0.996718
vt 0.521812 0.562601
vt 0.640064 0.978127
vt 0.535896 0.555996
vt 0.731747 0.941092
vt 0.548204 0.546824
vt 0.814715 0.886807
vt 0.558271 0.535529
vt 0.885627 0.817216
vt 0.565737 0.522637
vt 0.941579 0.734939
vt 0.570357 0.508729
vt 0.980246 0.643169
vt 0.572012 0.494418
vt 1.000000 0.545541
vt 0.570710 0.480325
vt 1.000000 0.445968
vt 0.566586 0.467055
vt 0.980236 0.348469
vt 0.559901 0.455172
vt 0.941538 0.256975
vt 0.551031 0.445176
vt 0.885533 0.175156
vt 0.540467 0.437482
vt 0.814570 0.106245
vt 0.528819 0.432392
vt 0.731598 0.052893
vt 0.516833 0.430054
vt 0.640016 0.017066
vn -0.098018 0.000130 0.995185
vn -0.290286 0.000130 0.956940
vn -0.471398 0.000130 0.881921
vn -0.634394 0.000130 0.773010
vn -0.773011 0.000130 0.634393
vn -0.881922 0.000130 0.471396
vn -0.956941 0.000130 0.290283
vn -0.995185 0.000130 0.098016
vn -0.995185 0.000130 -0.098018
vn -0.956940 0.000130 -0.290285
vn -0.881921 0.000130 -0.471397
vn -0.773010 0.000130 -0.634394
vn -0.634393 0.000130 -0.773011
vn -0.471396 0.000130 -0.881922
vn -0.290285 0.000130 -0.956940
vn -0.098017 0.000130 -0.995185
vn 0.098017 0.000130 -0.995185
vn 0.290284 0.000130 -0.956941
vn 0.471396 0.000130 -0.881922
vn 0.634393 0.000130 -0.773011
vn 0.773010 0.000130 -0.634394
vn 0.881921 0.000130 -0.471398
vn 0.956940 0.000130 -0.290286
vn 0.995185 0.000130 -0.098019
vn 0.995185 0.000130 0.098015
vn 0.956941 0.000130 0.290283
vn 0.881922 0.000130 0.471395
vn 0.773012 0.000130 0.634391
vn 0.634395 0.000130 0.773009
vn 0.471399 0.000130 0.881920
vn 0.290287 0.000130 0.956940
vn 0.098018 0.000130 0.995185
vn 0.881921 0.000130 -0.471397
vn 0.634392 0.000130 -0.773011
vn -0.471396 0.000130 -0.881921
vn -0.956941 0.000130 0.290284 
usemtl (null)
s off
f 1/1/1 2/2/1 34/3/1 33/4/1
f 2/2/2 3/5/2 35/6/2 34/3/2
f 3/5/3 4/7/3 36/8/3 35/6/3
f 4/7/4 5/9/4 37/10/4 36/8/4
f 5/9/5 6/11/5 38/12/5 37/10/5
f 6/11/6 7/13/6 39/14/6 38/12/6
f 7/13/7 8/15/7 40/16/7 39/14/7
f 8/15/8 9/17/8 41/18/8 40/16/8
f 9/17/9 10/19/9 42/20/9 41/18/9
f 10/19/10 11/21/10 43/22/10 42/20/10
f 11/21/11 12/23/11 44/24/11 43/22/11
f 12/23/12 13/25/12 45/26/12 44/24/12
f 13/25/13 14/27/13 46/28/13 45/26/13
f 14/27/14 15/29/14 47/30/14 46/28/14
f 15/29/15 16/31/15 48/32/15 47/30/15
f 16/31/16 17/33/16 49/34/16 48/32/16
f 17/33/17 18/35/17 50/36/17 49/34/17
f 18/35/18 19/37/18 51/38/18 50/36/18
f 19/37/19 20/39/19 52/40/19 51/38/19
f 20/39/20 21/41/20 53/42/20 52/40/20
f 21/41/21 22/43/21 54/44/21 53/42/21
f 22/43/22 23/45/22 55/46/22 54/44/22
f 23/45/23 24/47/23 56/48/23 55/46/23
f 24/47/24 25/49/24 57/50/24 56/48/24
f 25/49/25 26/51/25 58/52/25 57/50/25
f 26/51/26 27/53/26 59/54/26 58/52/26
f 27/53/27 28/55/27 60/56/27 59/54/27
f 28/55/28 29/57/28 61/58/28 60/56/28
f 29/57/29 30/59/29 62/60/29 61/58/29
f 30/59/30 31/61/30 63/62/30 62/60/30
f 31/61/31 32/63/31 64/64/31 63/62/31
f 32/63/32 1/1/32 33/4/32 64/64/32
f 97/63/32 128/1/32 96/4/32 65/64/32
f 98/61/31 97/63/31 65/64/31 66/62/31
f 99/59/30 98/61/30 66/62/30 67/60/30
f 100/57/29 99/59/29 67/60/29 68/58/29
f 101/55/28 100/57/28 68/58/28 69/56/28
f 102/53/27 101/55/27 69/56/27 70/54/27
f 103/51/26 102/53/26 70/54/26 71/52/26
f 104/49/25 103/51/25 71/52/25 72/50/25
f 105/47/24 104/49/24 72/50/24 73/48/24
f 106/45/23 105/47/23 73/48/23 74/46/23
f 107/43/33 106/45/33 74/46/33 75/44/33
f 108/41/21 107/43/21 75/44/21 76/42/21
f 109/39/34 108/41/34 76/42/34 77/40/34
f 110/37/19 109/39/19 77/40/19 78/38/19
f 111/35/18 110/37/18 78/38/18 79/36/18
f 112/33/17 111/35/17 79/36/17 80/34/17
f 113/31/16 112/33/16 80/34/16 81/32/16
f 114/29/15 113/31/15 81/32/15 82/30/15
f 115/27/35 114/29/35 82/30/35 83/28/35
f 116/25/13 115/27/13 83/28/13 84/26/13
f 117/23/12 116/25/12 84/26/12 85/24/12
f 118/21/11 117/23/11 85/24/11 86/22/11
f 119/19/10 118/21/10 86/22/10 87/20/10
f 120/17/9 119/19/9 87/20/9 88/18/9
f 121/15/8 120/17/8 88/18/8 89/16/8
f 122/13/36 121/15/36 89/16/36 90/14/36
f 123/11/6 122/13/6 90/14/6 91/12/6
f 124/9/5 123/11/5 91/12/5 92/10/5
f 125/7/4 124/9/4 92/10/4 93/8/4
f 126/5/3 125/7/3 93/8/3 94/6/3
f 127/2/2 126/5/2 94/6/2 95/3/2
f 128/1/1 127/2/1 95/3/1 96/4/1
